<svg xmlns="http://www.w3.org/2000/svg" width="239.55" height="239.55" viewBox="0 0 63.381 63.381"><style><![CDATA[.B{stroke-linejoin:round}.C{stroke-width:3}]]></style><g transform="translate(-97.175 -92.428)"><path d="M97.175 92.428h63.381v63.381H97.175z" fill="#fff"/><g transform="translate(-.077 .481)" fill="maroon" stroke="maroon" class="C"><path d="M99.54 94.611v35.721a31.83 31.83 0 0 0 4.306.327c17.58 0 31.832-14.252 31.832-31.832a31.83 31.83 0 0 0-.282-4.216z" class="B"/><path d="M103.846 131v17.303"/><ellipse cx="103.846" cy="150.129" rx="3.66" ry="2.535" class="B"/><g transform="rotate(270 98.293 104.449)"><path d="M103.915 142.837v17.303"/><ellipse cx="103.915" cy="161.966" rx="3.66" ry="2.535" class="B"/></g><g transform="rotate(330 82.718 104.062)"><path d="M103.915 142.837v17.303"/><ellipse cx="103.915" cy="161.966" rx="3.66" ry="2.535" class="B"/></g><g transform="rotate(300 93.965 103.594)"><path d="M103.915 142.837v17.303"/><ellipse cx="103.915" cy="161.966" rx="3.66" ry="2.535" class="B"/></g></g></g></svg>
