<svg xmlns="http://www.w3.org/2000/svg" xmlns:xlink="http://www.w3.org/1999/xlink" width="236.553" height="236.553" viewBox="0 0 62.588 62.588"><g transform="translate(-82.335 -77.098)"><path d="M83.835 78.598h59.588v59.588H83.835z" fill="#fff" stroke="#fff" stroke-width="3" stroke-linejoin="round"/><g transform="translate(-15.705 -16.013)" fill="maroon"><path d="M99.54 94.611v35.721a31.83 31.83 0 0 0 4.306.327c17.58 0 31.832-14.252 31.832-31.832a31.83 31.83 0 0 0-.282-4.216z"/><path d="M99.54 93.111a1.5 1.5 0 0 0-1.5 1.5v35.721a1.5 1.5 0 0 0 1.286 1.485c1.494.216 3 .33 4.509.342 18.403 0 33.344-14.941 33.344-33.332a33.35 33.35 0 0 0-.295-4.415 1.5 1.5 0 0 0-1.487-1.301zm1.5 3h33c.082.903.137 1.809.137 2.716 0 16.768-13.559 30.328-30.326 30.331a30.32 30.32 0 0 1-2.811-.169z"/><g stroke="maroon"><path d="M103.846 131v17.303"/><path d="M102.345 130.999v17.305h3v-17.305z"/><path d="M107.506 150.129c0 1.4-1.639 2.535-3.66 2.535s-3.66-1.135-3.66-2.535c0-.672.386-1.317 1.072-1.792s1.617-.742 2.588-.742 1.902.267 2.588.742 1.072 1.12 1.072 1.792z"/><use xlink:href="#B"/><g transform="rotate(270 98.293 104.449)"><path d="M103.915 142.837v17.303"/><path d="M102.414 142.836v17.305h3v-17.305z"/><use xlink:href="#C"/><use xlink:href="#B" x="0.069" y="11.837"/></g><g transform="rotate(330 82.718 104.062)"><path d="M103.915 142.837v17.303"/><path d="M102.414 142.836v17.305h3v-17.305z"/><use xlink:href="#C"/><use xlink:href="#B" x="0.069" y="11.837"/></g><g transform="rotate(300 93.965 103.594)"><path d="M103.915 142.837v17.303"/><path d="M102.414 142.836v17.305h3v-17.305z"/><use xlink:href="#C"/><use xlink:href="#B" x="0.069" y="11.837"/></g></g></g></g><defs ><path id="B" d="M103.845 146.095c-1.291 0-2.485.348-3.441 1.01s-1.717 1.74-1.717 3.025.761 2.363 1.717 3.025 2.15 1.008 3.441 1.008 2.487-.346 3.443-1.008 1.717-1.74 1.717-3.025-.761-2.363-1.717-3.025-2.152-1.01-3.443-1.01zm0 3c.73 0 1.366.219 1.734.475s.426.446.426.561-.057.303-.426.559-1.004.475-1.734.475-1.364-.219-1.732-.475-.426-.444-.426-.559.057-.305.426-.561 1.002-.475 1.732-.475z"/><path id="C" d="M107.575 161.966a3.66 2.535 0 0 1-3.66 2.535 3.66 2.535 0 0 1-3.66-2.535 3.66 2.535 0 0 1 3.66-2.535 3.66 2.535 0 0 1 3.66 2.535z"/></defs></svg>
